<svg xmlns="http://www.w3.org/2000/svg" width="1626" height="928" viewBox="0 0 1626 928">
  <defs>
    <style>
      .cls-1 {
        fill: #2f2f41;
      }

      .cls-1, .cls-2 {
        fill-rule: evenodd;
      }

      .cls-2 {
        fill: #be5501;
      }
    </style>
  </defs>
  <path id="Color_Fill_2" data-name="Color Fill 2" class="cls-1" d="M848,354c33.086-.814,55.676,6.5,75,19v33c-51.09-30.381-121.786-30.01-134,38-15.206,84.669,87.816,87.8,135,57h1c0.345,11.795,1.332,27.76-3,35-12.031,4.906-23.335,12-38,15-78.883,16.116-146.108-36.529-129-119l11-31c12.528-20.784,32.166-35.455,58-43Zm-615,4h35v79h91V358h34V549H359V466H268v83H233V358Zm193,0H555v29H461v52l70,1q-0.5,14-1,28H461v52h94v29H426V358Zm148,0h40l48,67,2-1,47-66h40l-68,93q1,2,2,4l67,93v1c-13.326.336-33.5,2.049-42-3l-47-66-3,2-48,67H573v-1l2-2,67-95Zm442,0h34q37.5,95.49,75,191h-35q-8.505-22-17-44H992l-16,43-36,1Zm171,0V520h92v29l-127-1q0.495-94.99,1-190h34Zm109,0h129v29h-94v52h70v29h-70v52h94v29H1296V358Zm-264,38q-15,40-30,80h61Q1047.505,436,1032,396Z"/>
  <path id="Color_Fill_1" data-name="Color Fill 1" class="cls-2" d="M1176,335h-36c0.26-11.219,2.48-57.011-2-62Q984.52,184.01,831,95L521,274v61H484V253L832,53q171.982,99.491,344,199v83Zm-57,1-578-1V286L832,119l288,166Q1119.505,310.5,1119,336Zm21,235h36v82L833,854,482,651q0.5-40,1-80l36,1q-0.5,29.5-1,59L834,811q152.486-89.491,305-179Q1139.495,601.5,1140,571Zm-599,0,578,1v48L901,747c-17.266,10.339-49.866,37.057-70,40L539,619Q540,595,541,571Z"/>
</svg>
